# xmcd
#
# Track frame offsets:
#	150
#	20972
#	47167
#	70297
#	95422
#	112696
#	131675
#	151064
#	169523
#	194226
#	218491
#	236839
#
# Disc length: 3449 seconds
#
# Revision: 0
# Processed by: cddbd v1.5.2PL0 Copyright (c) Steve Scherf et al.
# Submitted via: EasyCDDAExtractor 16.0.9.1
#
DISCID=a50d770c
DTITLE=Ngọc Minh - NMCD20: Đêm Giã Từ
DYEAR=2003
DGENRE=Country
TTITLE0=Xin Anh Đừng Hỏi (Trần Thiện Thanh - Nhật Bằng - Đào Duy)
TTITLE1=Hoa Học Trò (Nhạc: Anh Bằng, Thơ: Nhất Tuấn)
TTITLE2=Đêm Giã Từ (Y Vân)
TTITLE3=Thành Phố Buồn (Lam Phương)
TTITLE4=Bài Tango Cho Em (Lam Phương)
TTITLE5=Một Đời Yêu Anh (Trần Thiện Thanh)
TTITLE6=Một Chiều Đông (Tuấn Khanh)
TTITLE7=Tiếng Hát Với Cung Đàn (Văn Phụng)
TTITLE8=Tiếng Hát Nửa Vời (Trần Trịnh)
TTITLE9=Người Ở Lại Charlie (Trần Thiện Thanh)
TTITLE10=Nhớ Thu (Khuyết Danh)
TTITLE11=Sài Gòn Ơi! Vĩnh Biệt (Nam Lộc)
EXTD=
EXTT0=
EXTT1=
EXTT2=
EXTT3=
EXTT4=
EXTT5=
EXTT6=
EXTT7=
EXTT8=
EXTT9=
EXTT10=
EXTT11=
PLAYORDER=
